HIERARCHY
ROOT hip
{
  OFFSET 0 0 0
  CHANNELS 6 Xposition Yposition Zposition Zrotation Yrotation Xrotation
  JOINT abdomen
  {
    OFFSET 0 20.6881 -0.73152
    CHANNELS 3 Zrotation Xrotation Yrotation
    JOINT chest
    {
      OFFSET 0 11.7043 -0.48768
      CHANNELS 3 Zrotation Xrotation Yrotation
      JOINT neck
      {
        OFFSET 0 22.1894 -2.19456
        CHANNELS 3 Zrotation Xrotation Yrotation
        JOINT head
        {
          OFFSET -0.24384 7.07133 1.2192
          CHANNELS 3 Zrotation Xrotation Yrotation
          JOINT leftEye
          {
            OFFSET 4.14528 8.04674 8.04672
            CHANNELS 3 Zrotation Xrotation Yrotation
            End Site
            {
              OFFSET 1 0 0
            }
          }
          JOINT rightEye
          {
            OFFSET -3.6576 8.04674 8.04672
            CHANNELS 3 Zrotation Xrotation Yrotation
            End Site
            {
              OFFSET 1 0 0
            }
          }
        }
      }
      JOINT rCollar
      {
        OFFSET -2.68224 19.2634 -4.8768
        CHANNELS 3 Zrotation Xrotation Yrotation
        JOINT rShldr
        {
          OFFSET -8.77824 -1.95073 1.46304
          CHANNELS 3 Zrotation Xrotation Yrotation
          JOINT rForeArm
          {
            OFFSET -28.1742 -1.7115 0.48768
            CHANNELS 3 Zrotation Xrotation Yrotation
            JOINT rHand
            {
              OFFSET -22.5879 0.773209 7.07136
              CHANNELS 3 Zrotation Xrotation Yrotation
              JOINT rThumb1
              {
                OFFSET -1.2192 -0.487915 3.41376
                CHANNELS 3 Zrotation Xrotation Yrotation
                JOINT rThumb2
                {
                  OFFSET -3.37035 -0.52449 3.41376
                  CHANNELS 3 Zrotation Xrotation Yrotation
                  End Site
                  {
                    OFFSET -1.78271 -1.18214 1.43049
                  }
                }
              }
              JOINT rIndex1
              {
                OFFSET -7.75947 0.938293 5.60832
                CHANNELS 3 Zrotation Xrotation Yrotation
                JOINT rIndex2
                {
                  OFFSET -2.54057 -0.884171 1.56538
                  CHANNELS 3 Zrotation Xrotation Yrotation
                  End Site
                  {
                    OFFSET -1.62519 -0.234802 1.16502
                  }
                }
              }
              JOINT rMid1
              {
                OFFSET -8.24714 1.18213 3.41376
                CHANNELS 3 Zrotation Xrotation Yrotation
                JOINT rMid2
                {
                  OFFSET -3.10165 -0.590103 1.0647
                  CHANNELS 3 Zrotation Xrotation Yrotation
                  End Site
                  {
                    OFFSET -2.48547 -0.328903 0.83742
                  }
                }
              }
              JOINT rRing1
              {
                OFFSET -8.82822 0.546677 1.51678
                CHANNELS 3 Zrotation Xrotation Yrotation
                JOINT rRing2
                {
                  OFFSET -2.60934 -0.819778 -0.0198488
                  CHANNELS 3 Zrotation Xrotation Yrotation
                  End Site
                  {
                    OFFSET -2.33842 -0.294052 0.168128
                  }
                }
              }
              JOINT rPinky1
              {
                OFFSET -8.27202 -0.0477905 -0.4584
                CHANNELS 3 Zrotation Xrotation Yrotation
                JOINT rPinky2
                {
                  OFFSET -1.82734 -0.647385 -0.700984
                  CHANNELS 3 Zrotation Xrotation Yrotation
                  End Site
                  {
                    OFFSET -1.69225 -0.51767 -0.607171
                  }
                }
              }
            }
          }
        }
      }
      JOINT lCollar
      {
        OFFSET 2.68224 19.2634 -4.8768
        CHANNELS 3 Zrotation Xrotation Yrotation
        JOINT lShldr
        {
          OFFSET 8.77824 -1.95073 1.46304
          CHANNELS 3 Zrotation Xrotation Yrotation
          JOINT lForeArm
          {
            OFFSET 28.1742 -1.7115 0.48768
            CHANNELS 3 Zrotation Xrotation Yrotation
            JOINT lHand
            {
              OFFSET 22.5879 0.773209 7.07136
              CHANNELS 3 Zrotation Xrotation Yrotation
              JOINT lThumb1
              {
                OFFSET 1.2192 -0.487915 3.41376
                CHANNELS 3 Zrotation Xrotation Yrotation
                JOINT lThumb2
                {
                  OFFSET 3.37035 -0.52449 3.41376
                  CHANNELS 3 Zrotation Xrotation Yrotation
                  End Site
                  {
                    OFFSET 1.78271 -1.18214 1.43049
                  }
                }
              }
              JOINT lIndex1
              {
                OFFSET 7.75947 0.938293 5.60832
                CHANNELS 3 Zrotation Xrotation Yrotation
                JOINT lIndex2
                {
                  OFFSET 2.54057 -0.884171 1.56538
                  CHANNELS 3 Zrotation Xrotation Yrotation
                  End Site
                  {
                    OFFSET 1.62519 -0.234802 1.16502
                  }
                }
              }
              JOINT lMid1
              {
                OFFSET 8.24714 1.18213 3.41376
                CHANNELS 3 Zrotation Xrotation Yrotation
                JOINT lMid2
                {
                  OFFSET 3.10165 -0.590103 1.0647
                  CHANNELS 3 Zrotation Xrotation Yrotation
                  End Site
                  {
                    OFFSET 2.48547 -0.328903 0.83742
                  }
                }
              }
              JOINT lRing1
              {
                OFFSET 8.82822 0.546677 1.51678
                CHANNELS 3 Zrotation Xrotation Yrotation
                JOINT lRing2
                {
                  OFFSET 2.60934 -0.819778 -0.0198488
                  CHANNELS 3 Zrotation Xrotation Yrotation
                  End Site
                  {
                    OFFSET 2.33842 -0.294052 0.168128
                  }
                }
              }
              JOINT lPinky1
              {
                OFFSET 8.27202 -0.0477905 -0.4584
                CHANNELS 3 Zrotation Xrotation Yrotation
                JOINT lPinky2
                {
                  OFFSET 1.82734 -0.647385 -0.700984
                  CHANNELS 3 Zrotation Xrotation Yrotation
                  End Site
                  {
                    OFFSET 1.69225 -0.51767 -0.607171
                  }
                }
              }
            }
          }
        }
      }
    }
  }
  JOINT rButtock
  {
    OFFSET -8.77824 4.35084 1.2192
    CHANNELS 3 Zrotation Xrotation Yrotation
    JOINT rThigh
    {
      OFFSET 0 -1.70687 -2.19456
      CHANNELS 3 Zrotation Xrotation Yrotation
      JOINT rShin
      {
        OFFSET 0 -36.8199 0.73152
        CHANNELS 3 Zrotation Xrotation Yrotation
        JOINT rFoot
        {
          OFFSET 0.73152 -45.1104 -5.12064
          CHANNELS 3 Zrotation Xrotation Yrotation
          End Site
          {
            OFFSET -1.1221 -3.69964 12.103
          }
        }
      }
    }
  }
  JOINT lButtock
  {
    OFFSET 8.77824 4.35084 1.2192
    CHANNELS 3 Zrotation Xrotation Yrotation
    JOINT lThigh
    {
      OFFSET 0 -1.70687 -2.19456
      CHANNELS 3 Zrotation Xrotation Yrotation
      JOINT lShin
      {
        OFFSET 0 -36.8199 0.73152
        CHANNELS 3 Zrotation Xrotation Yrotation
        JOINT lFoot
        {
          OFFSET -0.73152 -45.1104 -5.12064
          CHANNELS 3 Zrotation Xrotation Yrotation
          End Site
          {
            OFFSET 1.1221 -3.69964 12.103
          }
        }
      }
    }
  }
}
MOTION
Frames:	7
Frame Time:	0.00833333
1.1634 119.24 -30.5848 -0.3639 0.3095 9.53 -3.46407 6.44325 1.54273 0.842168 0.931603 0.305867 -2.19535 8.01959 -1.27903 3.62498 4.85318 -2.28453 -0.0 0.0 0.0 -0.0 0.0 0.0 8.75295e-15 -2.93863e-13 -1.61893e-14 69.9144 22.2409 0.779755 -17.8273 -10.5039 33.6288 -0.547924 20.5542 3.02079 8.03031e-10 -1.78398e-09 1.84915e-09 1.41807e-09 -3.09578e-09 3.18445e-09 8.03034e-10 -1.78397e-09 1.84914e-09 7.73091 5.47488 0.417314 8.03032e-10 -1.78398e-09 1.84915e-09 2.90554 0.965183 0.102902 8.03034e-10 -1.78398e-09 1.84915e-09 10.2786 0.731801 0.0259123 8.03024e-10 -1.78398e-09 1.84915e-09 2.22167 -0.733487 -0.20892 8.73294e-15 -2.93868e-13 -1.64685e-14 -59.8565 32.772 -10.9955 21.3488 -14.8083 -42.0665 1.40205 -31.5774 4.95565 -1.67e-10 -8.24992e-10 1.91617e-09 -3.47177e-10 -1.49983e-09 3.30876e-09 -1.67004e-10 -8.24986e-10 1.91617e-09 -7.73091 5.47488 -0.417314 -1.66999e-10 -8.24988e-10 1.91617e-09 -2.90554 0.965183 -0.102902 -1.6701e-10 -8.24988e-10 1.91616e-09 -10.2786 0.731801 -0.0259123 -1.67001e-10 -8.24992e-10 1.91615e-09 -2.22167 -0.733487 0.20892 -2.03217e-16 0.0 -3.88251e-19 -7.06728 -26.6568 -11.2383 -0.68449 50.8476 0.813225 0.965441 24.0523 -4.17642 2.03217e-16 0.0 3.88251e-19 7.81359 -25.912 13.0839 0.256995 37.0657 -0.448655 1.7206 28.8248 -3.27057
1.20218 119.86 -29.8 -0.2057 0.1769 9.837 -3.7251 6.4143 1.58092 0.816014 0.915842 0.319833 -2.19081 7.86828 -1.23937 3.56576 5.17533 -2.21078 -0.0 0.0 0.0 -0.0 0.0 0.0 2.2546e-14 -3.75303e-13 -2.64881e-14 70.2798 21.9766 0.996181 -17.4556 -10.1132 32.8102 -0.57542 21.0366 3.09844 1.08828e-09 -2.40523e-09 2.42e-09 1.92061e-09 -4.1737e-09 4.16765e-09 1.08828e-09 -2.40522e-09 2.42e-09 7.73091 5.47488 0.417314 1.08828e-09 -2.40523e-09 2.42001e-09 2.90554 0.965183 0.102902 1.08828e-09 -2.40523e-09 2.42e-09 10.2786 0.731801 0.0259123 1.08827e-09 -2.40523e-09 2.42001e-09 2.22167 -0.733487 -0.20892 2.25796e-14 -3.75307e-13 -2.67862e-14 -60.9551 32.3139 -10.4812 21.0684 -14.4179 -41.3414 1.36538 -31.2137 4.88525 -2.80791e-10 -1.19651e-09 2.70601e-09 -5.67521e-10 -2.17616e-09 4.67094e-09 -2.80796e-10 -1.1965e-09 2.70601e-09 -7.73091 5.47488 -0.417314 -2.8079e-10 -1.1965e-09 2.70601e-09 -2.90554 0.965183 -0.102902 -2.80801e-10 -1.1965e-09 2.70601e-09 -10.2786 0.731801 -0.0259123 -2.80792e-10 -1.19651e-09 2.70599e-09 -2.22167 -0.733487 0.20892 -2.03217e-16 0.0 -3.88251e-19 -7.3491 -27.9219 -11.3086 -0.690086 51.0127 0.823633 0.844624 23.068 -4.0147 2.03217e-16 0.0 3.88251e-19 7.6813 -26.6662 13.2273 0.233647 35.9162 -0.416412 1.56698 27.8343 -2.99315
1.23278 120.412 -29.0041 -0.097 0.1178 10.1255 -3.86865 6.42633 1.49259 0.819617 0.889509 0.30056 -2.17604 7.75527 -1.17143 3.43947 5.36271 -2.07901 -0.0 0.0 0.0 -0.0 0.0 0.0 2.24117e-14 -3.94859e-13 -3.01706e-14 70.5535 21.7127 1.27278 -17.0835 -9.73487 31.9947 -0.60553 21.5513 3.18181 9.58571e-10 -2.32965e-09 2.48141e-09 1.69748e-09 -4.04473e-09 4.27593e-09 9.58574e-10 -2.32965e-09 2.4814e-09 7.73091 5.47488 0.417314 9.58567e-10 -2.32965e-09 2.48141e-09 2.90554 0.965183 0.102902 9.58574e-10 -2.32965e-09 2.48141e-09 10.2786 0.731801 0.0259123 9.58565e-10 -2.32965e-09 2.48142e-09 2.22167 -0.733487 -0.20892 2.24103e-14 -3.94862e-13 -3.04804e-14 -62.0449 31.8269 -9.97969 20.7663 -14.0088 -40.5688 1.328 -30.8371 4.81287 -2.58741e-10 -1.25274e-09 2.63586e-09 -5.28315e-10 -2.27109e-09 4.55042e-09 -2.58748e-10 -1.25274e-09 2.63586e-09 -7.73091 5.47488 -0.417314 -2.5874e-10 -1.25274e-09 2.63586e-09 -2.90554 0.965183 -0.102902 -2.58751e-10 -1.25274e-09 2.63586e-09 -10.2786 0.731801 -0.0259123 -2.5874e-10 -1.25274e-09 2.63584e-09 -2.22167 -0.733487 0.20892 -2.03217e-16 0.0 -3.88251e-19 -7.5392 -28.9897 -11.403 -0.683738 50.8434 0.820119 0.729134 22.1817 -3.82594 2.03217e-16 0.0 3.88251e-19 7.64657 -27.4225 13.3759 0.211175 34.8296 -0.391509 1.54627 26.9251 -3.02215
1.25593 120.895 -28.1929 -0.0317 0.1331 10.3755 -3.93904 6.42879 1.29818 0.85211 0.863708 0.253263 -2.15233 7.66147 -1.07712 3.2585 5.46079 -1.89388 -0.0 0.0 0.0 -0.0 0.0 0.0 1.48376e-14 -3.73516e-13 -3.0939e-14 70.7422 21.4731 1.61008 -16.709 -9.36601 31.178 -0.638415 22.0942 3.27045 5.59265e-10 -1.8154e-09 2.23684e-09 1.00336e-09 -3.1563e-09 3.85901e-09 5.59267e-10 -1.8154e-09 2.23683e-09 7.73091 5.47488 0.417314 5.59259e-10 -1.8154e-09 2.23684e-09 2.90554 0.965183 0.102902 5.59267e-10 -1.8154e-09 2.23684e-09 10.2786 0.731801 0.0259123 5.59261e-10 -1.8154e-09 2.23685e-09 2.22167 -0.733487 -0.20892 1.47512e-14 -3.73518e-13 -3.12558e-14 -63.1272 31.3249 -9.48396 20.4426 -13.5811 -39.7572 1.29028 -30.4498 4.73902 -1.63301e-10 -1.14654e-09 2.03252e-09 -3.46902e-10 -2.06236e-09 3.51041e-09 -1.6331e-10 -1.14654e-09 2.03253e-09 -7.73091 5.47488 -0.417314 -1.63301e-10 -1.14654e-09 2.03252e-09 -2.90554 0.965183 -0.102902 -1.6331e-10 -1.14654e-09 2.03252e-09 -10.2786 0.731801 -0.0259123 -1.63299e-10 -1.14654e-09 2.0325e-09 -2.22167 -0.733487 0.20892 -2.03217e-16 0.0 -3.88251e-19 -7.67185 -29.9249 -11.5147 -0.666245 50.3627 0.80351 0.622386 21.3583 -3.6287 2.03217e-16 0.0 3.88251e-19 7.67374 -28.1898 13.5299 0.188081 33.7287 -0.37078 1.6084 26.0633 -3.26595
1.2729 121.31 -27.3634 -0.0077 0.2233 10.5693 -3.95666 6.46176 1.05007 0.894887 0.832198 0.191575 -2.12446 7.57793 -0.978084 3.07511 5.51369 -1.69935 -0.0 0.0 0.0 -0.0 0.0 0.0 4.86169e-15 -3.26032e-13 -2.89352e-14 70.9223 21.2091 1.92545 -16.3572 -9.02672 30.4226 -0.672707 22.64 3.36035 1.16002e-10 -1.15552e-09 1.82156e-09 2.30357e-10 -2.01467e-09 3.14748e-09 1.16003e-10 -1.15552e-09 1.82156e-09 7.73091 5.47488 0.417314 1.15994e-10 -1.15552e-09 1.82156e-09 2.90554 0.965183 0.102902 1.16003e-10 -1.15552e-09 1.82157e-09 10.2786 0.731801 0.0259123 1.15999e-10 -1.15552e-09 1.82157e-09 2.22167 -0.733487 -0.20892 4.68883e-15 -3.26032e-13 -2.92497e-14 -64.1609 30.8612 -9.007 20.1089 -13.151 -38.9392 1.25509 -30.0802 4.66917 -4.24255e-11 -9.41414e-10 1.2629e-09 -1.16255e-10 -1.67558e-09 2.18353e-09 -4.24358e-11 -9.41414e-10 1.26291e-09 -7.73091 5.47488 -0.417314 -4.24255e-11 -9.41413e-10 1.2629e-09 -2.90554 0.965183 -0.102902 -4.24329e-11 -9.41412e-10 1.2629e-09 -10.2786 0.731801 -0.0259123 -4.24212e-11 -9.41413e-10 1.26288e-09 -2.22167 -0.733487 0.20892 -2.03217e-16 0.0 -3.88251e-19 -7.75969 -30.704 -11.6248 -0.640956 49.6424 0.777503 0.529901 20.6131 -3.44401 2.03217e-16 0.0 3.88251e-19 7.74133 -28.9376 13.6495 0.16611 32.6657 -0.353093 1.68357 25.2577 -3.55894
1.28515 121.657 -26.5142 -0.0143 0.363 10.6973 -3.9412 6.56539 0.800538 0.929342 0.788742 0.129131 -2.09731 7.49569 -0.895957 2.94133 5.56565 -1.53933 -0.0 0.0 0.0 -0.0 0.0 0.0 -2.47785e-15 -2.67168e-13 -2.43014e-14 71.1693 20.8725 2.13649 -16.0558 -8.73917 29.7906 -0.706707 23.1639 3.44733 -1.4558e-10 -6.4307e-10 1.37086e-09 -2.294e-10 -1.1261e-09 2.37193e-09 -1.4558e-10 -6.4307e-10 1.37085e-09 7.73091 5.47488 0.417314 -1.45589e-10 -6.43068e-10 1.37085e-09 2.90554 0.965183 0.102902 -1.4558e-10 -6.43069e-10 1.37086e-09 10.2786 0.731801 0.0259123 -1.45583e-10 -6.43071e-10 1.37087e-09 2.22167 -0.733487 -0.20892 -2.69073e-15 -2.67167e-13 -2.45996e-14 -65.107 30.4894 -8.56027 19.7793 -12.7368 -38.147 1.22499 -29.7568 4.60855 5.59318e-11 -7.00852e-10 6.93902e-10 7.0652e-11 -1.23635e-09 1.20246e-09 5.59201e-11 -7.00855e-10 6.93914e-10 -7.73091 5.47488 -0.417314 5.59316e-11 -7.00853e-10 6.93905e-10 -2.90554 0.965183 -0.102902 5.5925e-11 -7.00852e-10 6.93906e-10 -10.2786 0.731801 -0.0259123 5.59372e-11 -7.00851e-10 6.93889e-10 -2.22167 -0.733487 0.20892 -2.03217e-16 0.0 -3.88251e-19 -7.81395 -31.3039 -11.7137 -0.611196 48.7539 0.745765 0.455868 19.9618 -3.29238 2.03217e-16 0.0 3.88251e-19 7.82521 -29.636 13.6932 0.147037 31.6929 -0.337317 1.71291 24.5176 -3.74039
1.29554 121.936 -25.6489 -0.0362 0.5578 10.7557 -3.8811 6.7687 0.540266 0.950269 0.725416 0.0633357 -2.07233 7.41644 -0.834767 2.87148 5.60499 -1.42185 -0.0 0.0 0.0 -0.0 0.0 0.0 -6.13917e-15 -1.76721e-13 -1.48541e-14 71.5034 20.4268 2.22491 -15.82 -8.5179 29.3011 -0.741237 23.6848 3.5344 -1.15283e-10 -3.02801e-10 7.59857e-10 -1.87875e-10 -5.31174e-10 1.31471e-09 -1.15281e-10 -3.02802e-10 7.59854e-10 7.73091 5.47488 0.417314 -1.15291e-10 -3.02799e-10 7.59853e-10 2.90554 0.965183 0.102902 -1.15282e-10 -3.028e-10 7.59857e-10 10.2786 0.731801 0.0259123 -1.15286e-10 -3.02801e-10 7.59863e-10 2.22167 -0.733487 -0.20892 -6.32023e-15 -1.7672e-13 -1.51096e-14 -65.9556 30.216 -8.15209 19.4523 -12.3386 -37.3667 1.20117 -29.4968 4.56013 1.48242e-10 -3.36708e-10 4.01493e-10 2.41094e-10 -5.95659e-10 6.98463e-10 1.48229e-10 -3.36711e-10 4.01506e-10 -7.73091 5.47488 -0.417314 1.48241e-10 -3.36708e-10 4.01494e-10 -2.90554 0.965183 -0.102902 1.48235e-10 -3.36707e-10 4.01498e-10 -10.2786 0.731801 -0.0259123 1.48247e-10 -3.36707e-10 4.01483e-10 -2.22167 -0.733487 0.20892 -2.03217e-16 0.0 -3.88251e-19 -7.83208 -31.6942 -11.7965 -0.577352 47.6781 0.708433 0.396629 19.4019 -3.1668 2.03217e-16 0.0 3.88251e-19 7.92316 -30.2849 13.6442 0.13112 30.8319 -0.323638 1.69893 23.8369 -3.80449
